<?xml version="1.0" encoding="UTF-8" standalone="no"?>
<svg
   xmlns:dc="http://purl.org/dc/elements/1.1/"
   xmlns:cc="http://creativecommons.org/ns#"
   xmlns:rdf="http://www.w3.org/1999/02/22-rdf-syntax-ns#"
   xmlns:svg="http://www.w3.org/2000/svg"
   xmlns="http://www.w3.org/2000/svg"
   xmlns:sodipodi="http://sodipodi.sourceforge.net/DTD/sodipodi-0.dtd"
   xmlns:inkscape="http://www.inkscape.org/namespaces/inkscape"
   height="30"
   width="30"
   sodipodi:docname="site-logo.svg"
   inkscape:version="1.0 (4035a4f, 2020-05-01)"
   id="svg8"
   version="1.1"
   viewBox="0 0 30 30"
   inkscape:export-filename="/Users/osantana/Downloads/logo1.png"
   inkscape:export-xdpi="189.59"
   inkscape:export-ydpi="189.59">
  <defs
     id="defs2" />
  <sodipodi:namedview
     inkscape:window-maximized="0"
     inkscape:window-y="23"
     inkscape:window-x="1440"
     inkscape:window-height="1395"
     inkscape:window-width="5120"
     showgrid="false"
     inkscape:document-rotation="0"
     inkscape:current-layer="layer1"
     inkscape:document-units="px"
     inkscape:cy="15"
     inkscape:cx="15"
     inkscape:zoom="52.588361"
     inkscape:pageshadow="2"
     inkscape:pageopacity="0.0"
     borderopacity="1.0"
     bordercolor="#666666"
     pagecolor="#ffffff"
     id="base" />
  <metadata
     id="metadata5">
    <rdf:RDF>
      <cc:Work
         rdf:about="">
        <dc:format>image/svg+xml</dc:format>
        <dc:type
           rdf:resource="http://purl.org/dc/dcmitype/StillImage" />
        <dc:title />
      </cc:Work>
    </rdf:RDF>
  </metadata>
  <g
     id="layer1"
     inkscape:groupmode="layer"
     inkscape:label="Layer 1">
    <g
       id="g1021" />
    <rect
       inkscape:export-ydpi="189.59"
       inkscape:export-xdpi="189.59"
       style="fill:none;fill-opacity:1;stroke:none;stroke-width:0.0279903;stroke-miterlimit:4;stroke-dasharray:none;stroke-opacity:1"
       id="rect851"
       width="30"
       height="30"
       x="-1.4597961e-07"
       y="4.3402039e-07"
       ry="0.0039450694" />
    <path
       d="m 11.611517,6.7239527 c -0.674448,0 -1.217261,0.5430023 -1.217261,1.2174508 v 4.2276195 c 0,0.674447 0.542813,1.21745 1.217261,1.21745 h 2.693692 c -0.0227,0.06686 -0.03571,0.138401 -0.03571,0.213119 v 1.014483 c 0,0.05055 0.0062,0.09955 0.0169,0.14678 h -1.040226 c -0.371923,0 -0.671498,0.299387 -0.671498,0.671307 v 0.103363 c 0,0.37192 0.299575,0.671307 0.671498,0.671307 h 3.507641 c 0.37192,0 0.671494,-0.299387 0.671494,-0.671307 v -0.103363 c 0,-0.37192 -0.299574,-0.671307 -0.671494,-0.671307 h -1.040229 c 0.01065,-0.04723 0.01693,-0.09623 0.01693,-0.14678 v -1.014483 c 0,-0.07472 -0.01302,-0.146264 -0.03571,-0.213119 h 2.693688 c 0.674449,0 1.217265,-0.543003 1.217265,-1.21745 V 8.0556684 H 18.3276 v 1.331715 H 17.008651 V 8.0556684 H 15.689906 V 6.7239527 Z"
       style="fill:#fffc2e;fill-opacity:1;stroke:none;stroke-width:0.0646785;stroke-miterlimit:4;stroke-dasharray:none"
       id="rect993" />
    <g
       transform="matrix(0.36367858,0,0,0.36367858,-40.088014,-26.057743)"
       style="fill:#007dce;fill-opacity:1"
       id="g1051">
      <rect
         style="fill:#007dce;fill-opacity:1;stroke:none;stroke-width:0.176389;stroke-miterlimit:4;stroke-dasharray:none"
         id="rect995"
         width="3.6263158"
         height="3.6621988"
         x="156.99786"
         y="90.138626"
         ry="0" />
      <rect
         style="fill:#007dce;fill-opacity:1;stroke:none;stroke-width:0.176389;stroke-miterlimit:4;stroke-dasharray:none"
         id="rect999"
         width="3.6263158"
         height="3.6621988"
         x="164.25049"
         y="90.138626"
         ry="0" />
      <rect
         style="fill:#007dce;fill-opacity:1;stroke:none;stroke-width:0.176389;stroke-miterlimit:4;stroke-dasharray:none"
         id="rect1001"
         width="3.6263158"
         height="3.6621988"
         x="160.62418"
         y="86.476425"
         ry="0" />
    </g>
    <rect
       style="fill:#ffffff;fill-opacity:1;stroke:none;stroke-width:0.0641488;stroke-miterlimit:4;stroke-dasharray:none"
       id="rect1007"
       width="1.3188134"
       height="1.3318633"
       x="20.965183"
       y="5.3918829"
       ry="0" />
    <g
       style="font-style:normal;font-variant:normal;font-weight:600;font-stretch:normal;font-size:4.40695px;line-height:1.25;font-family:'Gill Sans';-inkscape-font-specification:'Gill Sans, Semi-Bold';font-variant-ligatures:normal;font-variant-caps:normal;font-variant-numeric:normal;font-variant-east-asian:normal;fill:#fefefe;fill-opacity:1;stroke:none;stroke-width:0.111343;stroke-miterlimit:4;stroke-dasharray:none"
       id="text1057"
       aria-label="CÔMPUTOS">
      <path
         id="path1082"
         style="font-style:normal;font-variant:normal;font-weight:600;font-stretch:normal;font-size:4.40695px;font-family:'Gill Sans';-inkscape-font-specification:'Gill Sans, Semi-Bold';font-variant-ligatures:normal;font-variant-caps:normal;font-variant-numeric:normal;font-variant-east-asian:normal;fill:#fefefe;fill-opacity:1;stroke-width:0.111343;stroke-miterlimit:4;stroke-dasharray:none"
         d="m 4.1977939,19.323794 q 0.2560679,0 0.5013766,0.0581 0.2453087,0.0581 0.5293504,0.197968 v 0.546565 q -0.2775862,-0.159235 -0.5142876,-0.230246 -0.2345496,-0.07101 -0.4906175,-0.07101 -0.3206228,0 -0.5788425,0.133413 -0.2582197,0.131262 -0.4023924,0.372267 -0.1420209,0.241005 -0.1420209,0.535806 0,0.301256 0.1420209,0.54011 0.1420208,0.238853 0.4002406,0.370115 0.2582197,0.12911 0.5809943,0.12911 0.2474606,0 0.471251,-0.07101 0.2259423,-0.07101 0.5680834,-0.256068 v 0.546565 q -0.292649,0.15278 -0.5379577,0.217335 -0.2453088,0.06456 -0.5723871,0.06456 -0.4755547,0 -0.8499733,-0.189361 Q 2.9282135,22.028646 2.7130304,21.673594 2.4999992,21.31639 2.4999992,20.892479 q 0,-0.454036 0.2194867,-0.815544 0.2216386,-0.361508 0.6068164,-0.557324 0.3873296,-0.195817 0.8714916,-0.195817 z" />
      <path
         id="path1084"
         style="font-style:normal;font-variant:normal;font-weight:600;font-stretch:normal;font-size:4.40695px;font-family:'Gill Sans';-inkscape-font-specification:'Gill Sans, Semi-Bold';font-variant-ligatures:normal;font-variant-caps:normal;font-variant-numeric:normal;font-variant-east-asian:normal;fill:#fefefe;fill-opacity:1;stroke-width:0.111343;stroke-miterlimit:4;stroke-dasharray:none"
         d="m 7.6859121,18.43724 0.4690992,0.718711 H 7.8193256 L 7.3351636,18.71913 6.8531535,19.155951 H 6.528227 L 6.9822633,18.43724 Z m -0.370115,0.886554 q 0.4669474,0 0.8392142,0.193665 0.3744186,0.191513 0.5960572,0.555172 0.2216386,0.361508 0.2216386,0.794026 0,0.421759 -0.217335,0.783267 -0.2151831,0.359355 -0.5939054,0.559476 -0.3765704,0.197968 -0.8499732,0.197968 -0.4669474,0 -0.8499733,-0.202272 -0.3808741,-0.202272 -0.5939054,-0.555172 -0.2130312,-0.355053 -0.2130312,-0.783267 0,-0.413151 0.2130312,-0.776811 0.2130313,-0.363659 0.5874499,-0.56378 0.3744186,-0.202272 0.8607324,-0.202272 z m -1.0608527,1.542863 q 0,0.299105 0.1355654,0.537958 0.1355653,0.238853 0.3765704,0.370115 0.2431569,0.131262 0.5487169,0.131262 0.4626437,0 0.7595964,-0.290498 0.2991045,-0.290497 0.2991045,-0.748837 0,-0.299104 -0.1355653,-0.537958 -0.1334136,-0.241005 -0.3787223,-0.372266 -0.2431569,-0.131262 -0.5487169,-0.131262 -0.30556,0 -0.5508688,0.133413 -0.2431569,0.131262 -0.3744186,0.370115 -0.1312617,0.236702 -0.1312617,0.537958 z" />
      <path
         id="path1086"
         style="font-style:normal;font-variant:normal;font-weight:600;font-stretch:normal;font-size:4.40695px;font-family:'Gill Sans';-inkscape-font-specification:'Gill Sans, Semi-Bold';font-variant-ligatures:normal;font-variant-caps:normal;font-variant-numeric:normal;font-variant-east-asian:normal;fill:#fefefe;fill-opacity:1;stroke-width:0.111343;stroke-miterlimit:4;stroke-dasharray:none"
         d="m 10.046471,19.362527 0.98769,1.185659 0.987691,-1.185659 h 0.518591 v 3.006108 h -0.580994 v -2.110946 h -0.01722 l -0.86934,1.058701 h -0.08177 l -0.86934,-1.058701 h -0.01721 v 2.110946 H 9.523576 v -3.006108 z" />
      <path
         id="path1088"
         style="font-style:normal;font-variant:normal;font-weight:600;font-stretch:normal;font-size:4.40695px;font-family:'Gill Sans';-inkscape-font-specification:'Gill Sans, Semi-Bold';font-variant-ligatures:normal;font-variant-caps:normal;font-variant-numeric:normal;font-variant-east-asian:normal;fill:#fefefe;fill-opacity:1;stroke-width:0.111343;stroke-miterlimit:4;stroke-dasharray:none"
         d="m 14.369499,19.362527 q 0.421759,0 0.684282,0.245309 0.264675,0.243157 0.264675,0.628335 0,0.389481 -0.266827,0.630486 -0.266827,0.241005 -0.703648,0.241005 h -0.559476 v 1.260973 H 13.20751 v -3.006108 z m -0.144173,1.291099 q 0.232398,0 0.361508,-0.10544 0.131262,-0.107591 0.131262,-0.316319 0,-0.415303 -0.533655,-0.415303 h -0.395936 v 0.837062 z" />
      <path
         id="path1090"
         style="font-style:normal;font-variant:normal;font-weight:600;font-stretch:normal;font-size:4.40695px;font-family:'Gill Sans';-inkscape-font-specification:'Gill Sans, Semi-Bold';font-variant-ligatures:normal;font-variant-caps:normal;font-variant-numeric:normal;font-variant-east-asian:normal;fill:#fefefe;fill-opacity:1;stroke-width:0.111343;stroke-miterlimit:4;stroke-dasharray:none"
         d="m 16.340577,19.362527 v 1.749439 q 0,0.268979 0.07962,0.428214 0.08177,0.159236 0.264675,0.262524 0.182906,0.103288 0.426063,0.103288 0.266827,0 0.451885,-0.09683 0.187209,-0.09898 0.273282,-0.266827 0.08607,-0.169995 0.08607,-0.469099 v -1.710706 h 0.580995 v 1.78602 q 0,0.606816 -0.36366,0.933895 -0.363659,0.324926 -1.028575,0.324926 -0.417455,0 -0.725167,-0.148476 -0.30556,-0.148477 -0.466947,-0.428215 -0.161388,-0.281889 -0.161388,-0.660612 v -1.807538 z" />
      <path
         id="path1092"
         style="font-style:normal;font-variant:normal;font-weight:600;font-stretch:normal;font-size:4.40695px;font-family:'Gill Sans';-inkscape-font-specification:'Gill Sans, Semi-Bold';font-variant-ligatures:normal;font-variant-caps:normal;font-variant-numeric:normal;font-variant-east-asian:normal;fill:#fefefe;fill-opacity:1;stroke-width:0.111343;stroke-miterlimit:4;stroke-dasharray:none"
         d="m 21.640536,19.362527 v 0.454037 h -1.067308 v 2.552071 h -0.580995 v -2.552071 h -1.067308 v -0.454037 z" />
      <path
         id="path1094"
         style="font-style:normal;font-variant:normal;font-weight:600;font-stretch:normal;font-size:4.40695px;font-family:'Gill Sans';-inkscape-font-specification:'Gill Sans, Semi-Bold';font-variant-ligatures:normal;font-variant-caps:normal;font-variant-numeric:normal;font-variant-east-asian:normal;fill:#fefefe;fill-opacity:1;stroke-width:0.111343;stroke-miterlimit:4;stroke-dasharray:none"
         d="m 23.448076,19.323794 q 0.466947,0 0.839214,0.193665 0.374419,0.191513 0.596057,0.555172 0.221639,0.361508 0.221639,0.794026 0,0.421759 -0.217335,0.783267 -0.215183,0.359355 -0.593905,0.559476 -0.376571,0.197968 -0.849974,0.197968 -0.466947,0 -0.849973,-0.202272 -0.380874,-0.202272 -0.593905,-0.555172 -0.213032,-0.355053 -0.213032,-0.783267 0,-0.413151 0.213032,-0.776811 0.213031,-0.363659 0.58745,-0.56378 0.374418,-0.202272 0.860732,-0.202272 z m -1.060853,1.542863 q 0,0.299105 0.135566,0.537958 0.135565,0.238853 0.37657,0.370115 0.243157,0.131262 0.548717,0.131262 0.462644,0 0.759596,-0.290498 0.299105,-0.290497 0.299105,-0.748837 0,-0.299104 -0.135565,-0.537958 -0.133414,-0.241005 -0.378723,-0.372266 -0.243157,-0.131262 -0.548717,-0.131262 -0.30556,0 -0.550868,0.133413 -0.243157,0.131262 -0.374419,0.370115 -0.131262,0.236702 -0.131262,0.537958 z" />
      <path
         id="path1096"
         style="font-style:normal;font-variant:normal;font-weight:600;font-stretch:normal;font-size:4.40695px;font-family:'Gill Sans';-inkscape-font-specification:'Gill Sans, Semi-Bold';font-variant-ligatures:normal;font-variant-caps:normal;font-variant-numeric:normal;font-variant-east-asian:normal;fill:#fefefe;fill-opacity:1;stroke-width:0.111343;stroke-miterlimit:4;stroke-dasharray:none"
         d="m 26.525193,19.323794 q 0.438973,0 0.845669,0.219487 v 0.516439 q -0.466947,-0.281889 -0.828455,-0.281889 -0.219487,0 -0.344293,0.08607 -0.122654,0.08392 -0.122654,0.225942 0,0.169995 0.230246,0.314167 0.06455,0.04304 0.497073,0.241006 0.370115,0.174298 0.533654,0.387329 0.163539,0.213031 0.163539,0.512136 0,0.387329 -0.279738,0.626183 -0.277586,0.236701 -0.720863,0.236701 -0.288346,0 -0.497073,-0.0624 -0.206576,-0.06455 -0.464796,-0.219487 v -0.572387 q 0.48201,0.400241 0.908073,0.400241 0.213031,0 0.344293,-0.09253 0.131262,-0.09253 0.131262,-0.245309 0,-0.208727 -0.228095,-0.339989 -0.189361,-0.103288 -0.488465,-0.247461 -0.355052,-0.161387 -0.531503,-0.37657 -0.174298,-0.215183 -0.174298,-0.499225 0,-0.378722 0.28189,-0.602513 0.28189,-0.225942 0.744534,-0.225942 z" />
    </g>
    <g
       style="font-style:normal;font-variant:normal;font-weight:bold;font-stretch:normal;font-size:1.50955px;line-height:1.25;font-family:'Helvetica Neue';-inkscape-font-specification:'Helvetica Neue, Bold';font-variant-ligatures:normal;font-variant-caps:normal;font-variant-numeric:normal;font-variant-east-asian:normal;letter-spacing:0.908936px;word-spacing:0.495783px;fill:#fffc2e;fill-opacity:1;stroke:none;stroke-width:0.0910654"
       id="text1071"
       aria-label="DE PORÃO">
      <path
         id="path1099"
         style="font-style:normal;font-variant:normal;font-weight:bold;font-stretch:normal;font-size:1.50955px;font-family:'Helvetica Neue';-inkscape-font-specification:'Helvetica Neue, Bold';font-variant-ligatures:normal;font-variant-caps:normal;font-variant-numeric:normal;font-variant-east-asian:normal;fill:#fffc2e;fill-opacity:1;stroke-width:0.0910654"
         d="m 7.8901571,24.384705 v -0.679298 h 0.1690696 q 0.087554,0 0.1464264,0.02566 0.060382,0.02415 0.096611,0.07095 0.036229,0.0468 0.051325,0.113217 0.016605,0.06491 0.016605,0.146426 0,0.08906 -0.022643,0.150955 -0.022643,0.06189 -0.060382,0.10114 -0.037739,0.03774 -0.086044,0.05434 -0.048306,0.01661 -0.09963,0.01661 z M 7.6531578,23.506147 v 1.077818 h 0.4649414 q 0.1237831,0 0.2143561,-0.04076 0.092083,-0.04227 0.1524645,-0.114725 0.061892,-0.07246 0.092083,-0.172089 0.030191,-0.09963 0.030191,-0.217375 0,-0.13435 -0.037739,-0.23398 -0.036229,-0.09963 -0.1026494,-0.166051 -0.064911,-0.06642 -0.1554836,-0.09963 -0.089063,-0.03321 -0.1932224,-0.03321 z" />
      <path
         id="path1101"
         style="font-style:normal;font-variant:normal;font-weight:bold;font-stretch:normal;font-size:1.50955px;font-family:'Helvetica Neue';-inkscape-font-specification:'Helvetica Neue, Bold';font-variant-ligatures:normal;font-variant-caps:normal;font-variant-numeric:normal;font-variant-east-asian:normal;fill:#fffc2e;fill-opacity:1;stroke-width:0.0910654"
         d="m 9.6795145,23.506147 v 1.077818 h 0.8181765 v -0.19926 H 9.9165138 V 24.120533 H 10.438818 V 23.936368 H 9.9165138 v -0.230961 h 0.5691002 v -0.19926 z" />
      <path
         id="path1103"
         style="font-style:normal;font-variant:normal;font-weight:bold;font-stretch:normal;font-size:1.50955px;font-family:'Helvetica Neue';-inkscape-font-specification:'Helvetica Neue, Bold';font-variant-ligatures:normal;font-variant-caps:normal;font-variant-numeric:normal;font-variant-east-asian:normal;fill:#fffc2e;fill-opacity:1;stroke-width:0.0910654"
         d="m 13.627682,24.013355 v -0.323043 h 0.184165 q 0.04076,0 0.0785,0.006 0.03774,0.006 0.06642,0.02415 0.02868,0.0166 0.04529,0.0483 0.01811,0.0317 0.01811,0.08303 0,0.05132 -0.01811,0.08302 -0.01661,0.0317 -0.04529,0.04981 -0.02868,0.01661 -0.06642,0.02264 -0.03774,0.006 -0.0785,0.006 z m -0.236999,-0.507208 v 1.077818 h 0.236999 v -0.386444 h 0.249076 q 0.10114,0 0.172089,-0.02868 0.07095,-0.03019 0.114725,-0.0785 0.04529,-0.0483 0.06491,-0.110197 0.02113,-0.0634 0.02113,-0.128311 0,-0.06642 -0.02113,-0.128312 -0.01962,-0.06189 -0.06491,-0.110197 -0.04378,-0.04831 -0.114725,-0.07699 -0.07095,-0.03019 -0.172089,-0.03019 z" />
      <path
         id="path1105"
         style="font-style:normal;font-variant:normal;font-weight:bold;font-stretch:normal;font-size:1.50955px;font-family:'Helvetica Neue';-inkscape-font-specification:'Helvetica Neue, Bold';font-variant-ligatures:normal;font-variant-caps:normal;font-variant-numeric:normal;font-variant-east-asian:normal;fill:#fffc2e;fill-opacity:1;stroke-width:0.0910654"
         d="m 15.498154,24.049585 q 0,-0.07095 0.0151,-0.137369 0.01661,-0.06642 0.05133,-0.117745 0.03472,-0.05284 0.09057,-0.08303 0.05585,-0.0317 0.135859,-0.0317 0.08001,0 0.13586,0.0317 0.05585,0.03019 0.09057,0.08303 0.03472,0.05132 0.04981,0.117745 0.01661,0.06642 0.01661,0.137369 0,0.06793 -0.01661,0.13284 -0.0151,0.0634 -0.04981,0.114726 -0.03472,0.05133 -0.09057,0.08302 -0.05585,0.03019 -0.13586,0.03019 -0.08001,0 -0.135859,-0.03019 -0.05585,-0.0317 -0.09057,-0.08302 -0.03472,-0.05132 -0.05133,-0.114726 -0.0151,-0.06491 -0.0151,-0.13284 z m -0.236999,0 q 0,0.117745 0.03623,0.220394 0.03623,0.10114 0.104159,0.176617 0.06793,0.07548 0.166051,0.119255 0.09963,0.04227 0.223413,0.04227 0.125293,0 0.223413,-0.04227 0.09812,-0.04378 0.166051,-0.119255 0.06793,-0.07548 0.104159,-0.176617 0.03623,-0.102649 0.03623,-0.220394 0,-0.120764 -0.03623,-0.223414 -0.03623,-0.104159 -0.104159,-0.181146 -0.06793,-0.07699 -0.166051,-0.120764 -0.09812,-0.04378 -0.223413,-0.04378 -0.123783,0 -0.223413,0.04378 -0.09812,0.04378 -0.166051,0.120764 -0.06793,0.07699 -0.104159,0.181146 -0.03623,0.10265 -0.03623,0.223414 z" />
      <path
         id="path1107"
         style="font-style:normal;font-variant:normal;font-weight:bold;font-stretch:normal;font-size:1.50955px;font-family:'Helvetica Neue';-inkscape-font-specification:'Helvetica Neue, Bold';font-variant-ligatures:normal;font-variant-caps:normal;font-variant-numeric:normal;font-variant-east-asian:normal;fill:#fffc2e;fill-opacity:1;stroke-width:0.0910654"
         d="m 17.627325,23.993731 v -0.303419 h 0.259643 q 0.08152,0 0.122274,0.03623 0.04076,0.03472 0.04076,0.113216 0,0.08152 -0.04076,0.117745 -0.04076,0.03623 -0.122274,0.03623 z m -0.236999,-0.487584 v 1.077818 h 0.236999 v -0.421164 h 0.237 q 0.08906,0 0.128312,0.03925 0.03925,0.03925 0.05132,0.123783 0.0091,0.06491 0.01359,0.13586 0.0045,0.07095 0.02415,0.122273 h 0.236999 q -0.0166,-0.02264 -0.02566,-0.05434 -0.0075,-0.03321 -0.01208,-0.06944 -0.003,-0.03623 -0.0045,-0.07095 -0.0015,-0.03472 -0.003,-0.06038 -0.003,-0.04076 -0.01208,-0.08151 -0.0075,-0.04076 -0.02566,-0.07397 -0.01811,-0.03472 -0.0468,-0.05887 -0.02868,-0.02566 -0.07246,-0.03774 v -0.003 q 0.09057,-0.03623 0.129821,-0.105668 0.04076,-0.06944 0.04076,-0.164541 0,-0.06189 -0.02264,-0.114726 -0.02113,-0.05434 -0.0634,-0.0951 -0.04076,-0.04076 -0.09963,-0.0634 -0.05736,-0.02415 -0.129821,-0.02415 z" />
      <path
         id="path1109"
         style="font-style:normal;font-variant:normal;font-weight:bold;font-stretch:normal;font-size:1.50955px;font-family:'Helvetica Neue';-inkscape-font-specification:'Helvetica Neue, Bold';font-variant-ligatures:normal;font-variant-caps:normal;font-variant-numeric:normal;font-variant-east-asian:normal;fill:#fffc2e;fill-opacity:1;stroke-width:0.0910654"
         d="m 19.661867,24.16733 0.140388,-0.395503 h 0.003 l 0.135859,0.395503 z m 0.02264,-0.661183 -0.407578,1.077818 h 0.238508 l 0.08453,-0.240018 h 0.40305 l 0.08152,0.240018 h 0.246056 l -0.403049,-1.077818 z m 0.227942,-0.128312 q -0.03472,0 -0.06491,-0.01057 -0.02868,-0.01208 -0.05585,-0.02566 -0.02566,-0.0151 -0.05133,-0.02566 -0.02566,-0.01208 -0.04981,-0.01208 -0.02868,0 -0.04529,0.02113 -0.0151,0.01962 -0.02264,0.05283 h -0.0951 q 0.0045,-0.03472 0.01661,-0.06944 0.01359,-0.03472 0.03623,-0.06189 0.02264,-0.02868 0.05283,-0.04529 0.0317,-0.01812 0.07095,-0.01812 0.03019,0 0.05887,0.01057 0.02868,0.0091 0.05585,0.02264 0.02717,0.01208 0.05132,0.02264 0.02566,0.0091 0.04982,0.0091 0.02717,0 0.04227,-0.0151 0.0151,-0.0151 0.02264,-0.04982 h 0.09661 q -0.0075,0.03925 -0.01963,0.07397 -0.01057,0.03472 -0.03019,0.06189 -0.01962,0.02717 -0.04981,0.04378 -0.02868,0.0151 -0.06944,0.0151 z" />
      <path
         id="path1111"
         style="font-style:normal;font-variant:normal;font-weight:bold;font-stretch:normal;font-size:1.50955px;font-family:'Helvetica Neue';-inkscape-font-specification:'Helvetica Neue, Bold';font-variant-ligatures:normal;font-variant-caps:normal;font-variant-numeric:normal;font-variant-east-asian:normal;fill:#fffc2e;fill-opacity:1;stroke-width:0.0910654"
         d="m 21.524155,24.049585 q 0,-0.07095 0.01509,-0.137369 0.01661,-0.06642 0.05133,-0.117745 0.03472,-0.05284 0.09057,-0.08303 0.05585,-0.0317 0.13586,-0.0317 0.08001,0 0.135859,0.0317 0.05585,0.03019 0.09057,0.08303 0.03472,0.05132 0.04981,0.117745 0.01661,0.06642 0.01661,0.137369 0,0.06793 -0.01661,0.13284 -0.01509,0.0634 -0.04981,0.114726 -0.03472,0.05133 -0.09057,0.08302 -0.05585,0.03019 -0.135859,0.03019 -0.08001,0 -0.13586,-0.03019 -0.05585,-0.0317 -0.09057,-0.08302 -0.03472,-0.05132 -0.05133,-0.114726 -0.01509,-0.06491 -0.01509,-0.13284 z m -0.237,0 q 0,0.117745 0.03623,0.220394 0.03623,0.10114 0.104159,0.176617 0.06793,0.07548 0.16605,0.119255 0.09963,0.04227 0.223414,0.04227 0.125292,0 0.223413,-0.04227 0.09812,-0.04378 0.16605,-0.119255 0.06793,-0.07548 0.104159,-0.176617 0.03623,-0.102649 0.03623,-0.220394 0,-0.120764 -0.03623,-0.223414 -0.03623,-0.104159 -0.104159,-0.181146 -0.06793,-0.07699 -0.16605,-0.120764 -0.09812,-0.04378 -0.223413,-0.04378 -0.123784,0 -0.223414,0.04378 -0.09812,0.04378 -0.16605,0.120764 -0.06793,0.07699 -0.104159,0.181146 -0.03623,0.10265 -0.03623,0.223414 z" />
    </g>
  </g>
</svg>
